#!OML:ASF H:\Terrain\Patient Classification 1\Walking\steve\steve.ASF
:FULLY-SPECIFIED
:DEGREES
31
root 7.3371 15.0587 -34.1944 8.62878 -8.20675 -3.71402
lowerback -1.95173 5.3197 3.82112
upperback -3.65015 7.09217 0.0641928
thorax -2.22004 3.45525 -2.02743
lowerneck -10.1091 -0.858048 -1.68103
upperneck 12.6839 -1.09245 1.412
head 5.50365 -0.510689 0.633801
rclavicle 9.69061e-014 1.6201e-014
rhumerus -7.34052 5.06637 -84.2707
rradius 48.9407
rwrist -14.4961
rhand -23.2968 -36.9962
rfingers 7.12502
rthumb 3.15652 -66.9526
lclavicle 9.69061e-014 1.6201e-014
lhumerus -76.9297 31.3542 24.5958
lradius 8.09346
lwrist -40.4802
lhand -17.8058 -11.8714
lfingers 7.12502
lthumb 8.45771 17.9392
rfemur 11.6789 4.64863 23.6692
rtibia 24.8419
rfoot 8.01036 14.497
rtoes 5.63779
lfemur -42.4892 2.64283 -15.1528
ltibia 25.7671
lfoot -2.54312 4.28004
ltoes -12.0501
32
root 7.34038 15.0527 -33.9286 8.62247 -8.25287 -3.15525
lowerback -2.0719 5.36172 2.90053
upperback -3.74029 7.14425 -0.180357
thorax -2.31974 3.49864 -1.77031
lowerneck -10.4581 -0.956407 -1.90952
upperneck 13.0921 -1.28064 2.05036
head 5.69926 -0.564859 0.856111
rclavicle -2.63614e-014 -1.74931e-014
rhumerus -8.53319 4.82083 -84.2467
rradius 49.646
rwrist -15.1075
rhand -23.7512 -37.5403
rfingers 7.12502
rthumb 2.71768 -67.5027
lclavicle -2.63614e-014 -1.74931e-014
lhumerus -76.2626 31.2366 25.0969
lradius 8.14399
lwrist -39.5499
lhand -18.1734 -12.3829
lfingers 7.12502
lthumb 8.10303 17.4418
rfemur 10.5654 5.38575 23.2641
rtibia 27.8546
rfoot 10.4121 11.2402
rtoes 6.90551
lfemur -42.8097 2.79891 -15.9921
ltibia 27.7847
lfoot -1.66314 4.44345
ltoes -13.1682
33
root 7.34026 15.0469 -33.6669 8.49306 -8.40985 -2.7829
lowerback -1.99081 5.43201 2.12724
upperback -3.81914 7.24241 -0.287638
thorax -2.5207 3.56244 -1.4741
lowerneck -10.5292 -1.1499 -2.48019
upperneck 13.1828 -1.55368 2.75616
head 5.7553 -0.673085 1.15002
rclavicle 6.23136e-014 7.05686e-015
rhumerus -9.7713 4.70588 -84.1693
rradius 50.2121
rwrist -15.6499
rhand -23.4147 -37.1919
rfingers 7.12502
rthumb 3.04261 -67.1499
lclavicle 6.23136e-014 7.05686e-015
lhumerus -75.9316 31.0158 25.5879
lradius 8.63369
lwrist -38.7719
lhand -17.6198 -11.9908
lfingers 7.12502
lthumb 8.63729 17.8125
rfemur 9.38208 6.14481 23.013
rtibia 31.1313
rfoot 12.5529 7.56919
rtoes 8.37889
lfemur -42.8947 3.2789 -16.7545
ltibia 29.7955
lfoot -1.44108 4.17036
ltoes -12.8826
34
root 7.34826 15.0551 -33.4095 8.32829 -8.3226 -2.0554
lowerback -1.94741 5.37211 1.21085
upperback -3.88442 7.15987 -0.563046
thorax -2.69005 3.53933 -1.26759
lowerneck -10.5478 -1.4163 -2.80873
upperneck 13.2375 -1.92783 3.1991
head 5.79332 -0.838259 1.31333
rclavicle -2.6509e-014 -8.34896e-015
rhumerus -11.0125 4.36187 -84.4488
rradius 50.5434
rwrist -15.7737
rhand -23.8237 -37.5848
rfingers 7.12502
rthumb 2.64765 -67.5482
lclavicle -2.6509e-014 -8.34896e-015
lhumerus -75.5847 31.0786 25.9937
lradius 9.11617
lwrist -38.0438
lhand -17.4081 -10.5053
lfingers 7.12502
lthumb 8.84156 19.2895
rfemur 8.03541 6.38751 22.2579
rtibia 34.5549
rfoot 14.5096 4.96243
rtoes 7.90195
lfemur -42.9446 3.55163 -17.9924
ltibia 31.7326
lfoot -1.44894 2.81152
ltoes -11.3996
35
root 7.362 15.07 -33.1557 8.12228 -8.08866 -1.28909
lowerback -1.87669 5.23949 0.367067
upperback -3.88061 6.97691 -0.87359
thorax -2.79127 3.46532 -1.13332
lowerneck -10.8677 -1.50069 -2.78375
upperneck 13.551 -2.09194 3.49332
head 5.95469 -0.890286 1.38786
rclavicle -5.99118e-014 4.57205e-015
rhumerus -12.2302 3.78248 -84.8142
rradius 50.7476
rwrist -15.4946
rhand -23.6932 -38.5566
rfingers 7.12502
rthumb 2.77364 -68.5183
lclavicle -5.99118e-014 4.57205e-015
lhumerus -75.1129 31.434 26.3943
lradius 9.29043
lwrist -37.2147
lhand -17.5291 -10.2968
lfingers 7.12502
lthumb 8.72479 19.5029
rfemur 6.58443 6.34343 21.421
rtibia 38.1324
rfoot 16.5863 4.03339
rtoes 5.93765
lfemur -42.8079 3.61904 -19.2544
ltibia 33.3529
lfoot -1.21234 1.19287
ltoes -9.01079
36
root 7.37101 15.0812 -32.909 7.82525 -7.97731 -0.910541
lowerback -1.51841 5.19758 -0.00938221
upperback -3.85349 6.91484 -1.1123
thorax -2.97968 3.43936 -1.20624
lowerneck -11.2053 -1.36757 -2.65045
upperneck 13.9014 -2.02692 4.06984
head 6.1256 -0.801389 1.55428
rclavicle -9.05713e-015 1.78906e-015
rhumerus -13.5718 2.99593 -85.1085
rradius 50.996
rwrist -15.0629
rhand -21.7993 -36.3576
rfingers 7.12502
rthumb 4.60257 -66.2876
lclavicle -9.05713e-015 1.78906e-015
lhumerus -74.455 31.6279 26.8257
lradius 9.28043
lwrist -36.2797
lhand -17.7369 -11.3077
lfingers 7.12502
lthumb 8.52421 18.5002
rfemur 5.15002 6.48637 21.0631
rtibia 41.8242
rfoot 18.5713 3.38619
rtoes 1.38081
lfemur -42.32 3.58846 -19.911
ltibia 34.5644
lfoot -1.34546 0.471564
ltoes -5.79176
37
root 7.37774 15.0907 -32.6696 7.4795 -7.99602 -0.321327
lowerback -1.20633 5.19658 -0.502287
upperback -3.73374 6.90085 -1.45642
thorax -3.04655 3.44016 -1.31241
lowerneck -10.8301 -1.53253 -2.75506
upperneck 13.0859 -2.24649 4.27918
head 5.8157 -0.907683 1.61809
rclavicle 8.33964e-016 -7.55382e-015
rhumerus -14.8746 2.70033 -85.327
rradius 51.4
rwrist -15.3967
rhand -20.8545 -36.1096
rfingers 7.12502
rthumb 5.5148 -66.0179
lclavicle 8.33964e-016 -7.55382e-015
lhumerus -73.701 31.785 27.2413
lradius 9.52137
lwrist -35.5755
lhand -17.1539 -11.2305
lfingers 7.12502
lthumb 9.08688 18.5538
rfemur 3.65787 6.72806 20.4833
rtibia 45.5034
rfoot 20.4517 1.7984
rtoes -3.09264
lfemur -41.597 3.49802 -20.7203
ltibia 35.5067
lfoot -2.18731 0.248643
ltoes -3.14279
38
root 7.38749 15.1005 -32.4317 7.08553 -8.27177 0.370792
lowerback -0.883898 5.21635 -1.20839
upperback -3.63498 6.90856 -1.76911
thorax -3.17048 3.45767 -1.27466
lowerneck -10.6185 -1.40626 -2.16844
upperneck 12.6781 -2.136 4.09515
head 5.63991 -0.844684 1.47254
rclavicle -6.91258e-014 1.98785e-015
rhumerus -16.2118 2.94087 -85.5704
rradius 51.7546
rwrist -16.2302
rhand -21.2273 -35.5679
rfingers 7.12502
rthumb 5.15487 -65.4852
lclavicle -6.91258e-014 1.98785e-015
lhumerus -73.2328 31.9922 27.5031
lradius 10.0003
lwrist -34.9591
lhand -16.1897 -10.549
lfingers 7.12502
lthumb 10.0171 19.1926
rfemur 2.15219 7.08642 19.737
rtibia 49.0897
rfoot 21.9297 -0.606503
rtoes -1.97991
lfemur -40.6667 3.55345 -21.6183
ltibia 36.2796
lfoot -3.18349 -0.220207
ltoes -1.87725
39
root 7.40073 15.1248 -32.1934 6.70812 -8.63421 0.564275
lowerback -0.462625 5.23618 -1.50219
upperback -3.56305 6.92056 -1.83871
thorax -3.35895 3.46932 -1.22582
lowerneck -10.5939 -1.4111 -2.38127
upperneck 12.4624 -2.1351 4.33289
head 5.57292 -0.83946 1.58195
rclavicle 2.325e-014 4.77083e-015
rhumerus -17.3921 2.90332 -85.9402
rradius 51.7835
rwrist -16.5564
rhand -20.7961 -33.8324
rfingers 7.12502
rthumb 5.57125 -63.7392
lclavicle 2.325e-014 4.77083e-015
lhumerus -71.4099 31.6416 30.584
lradius 10.3785
lwrist -31.888
lhand -16.5534 -10.3656
lfingers 7.12502
lthumb 9.66625 19.3926
rfemur 0.64348 7.42364 19.5282
rtibia 52.4978
rfoot 22.2809 -2.9561
rtoes 0.973479
lfemur -39.6095 3.838 -22.0252
ltibia 36.9018
lfoot -4.16127 -0.815034
ltoes -3.25693
40
root 7.41583 15.1633 -31.9677 6.60798 -8.65133 0.68999
lowerback -0.342686 5.10535 -1.61281
upperback -3.41945 6.74367 -1.83029
thorax -3.29233 3.38374 -1.15554
lowerneck -10.8353 -1.1877 -2.2278
upperneck 12.4352 -1.84021 4.24134
head 5.59284 -0.692582 1.5507
rclavicle 1.72073e-014 -1.86858e-014
rhumerus -18.2773 2.83932 -86.2833
rradius 51.6798
rwrist -16.5957
rhand -35.2901 -41.4877
rfingers 7.12502
rthumb -8.42476 -71.2996
lclavicle 1.72073e-014 -1.86858e-014
lhumerus -70.6044 32.4372 31.6202
lradius 10.5069
lwrist -31.0565
lhand -16.943 -10.5697
lfingers 7.12502
lthumb 9.29034 19.2057
rfemur -1.12536 7.45092 19.4407
rtibia 55.6983
rfoot 21.2972 -4.83317
rtoes 0.7681
lfemur -38.9137 4.1176 -22.4816
ltibia 37.4017
lfoot -4.86741 -1.29946
ltoes -5.83802
41
root 7.43096 15.1874 -31.7537 6.58037 -8.54586 0.930777
lowerback -0.20512 4.9026 -1.76245
upperback -3.34971 6.46699 -1.86188
thorax -3.31157 3.2488 -1.10807
lowerneck -10.2472 -1.17547 -2.12762
upperneck 11.4792 -1.74741 3.72944
head 5.18674 -0.693067 1.38013
rclavicle -3.07976e-014 -1.74931e-014
rhumerus -19.1853 2.90989 -86.6465
rradius 51.4159
rwrist -16.6373
rhand -40.793 -50.2991
rfingers 7.12502
rthumb -13.7321 -79.826
lclavicle -3.07976e-014 -1.74931e-014
lhumerus -70.1741 33.4932 32.0051
lradius 10.6133
lwrist -30.8655
lhand -16.8761 -10.5203
lfingers 7.12502
lthumb 9.35486 19.2521
rfemur -2.90169 7.34827 19.2245
rtibia 58.7343
rfoot 19.335 -7.05372
rtoes 2.52373
lfemur -38.2483 3.66554 -22.7872
ltibia 37.7682
lfoot -5.6773 -1.236
ltoes -4.81947
